Coordinates
version=1
nRows=19
nColumns=24
inDegrees=yes

Units are S.I. units (second, meters, Newtons, ...)
Angles are in degrees.

endheader
time	pelvis_tilt	pelvis_list	pelvis_rotation	pelvis_tx	pelvis_ty	pelvis_tz	hip_flexion_r	hip_adduction_r	hip_rotation_r	knee_angle_r	ankle_angle_r	subtalar_angle_r	mtp_angle_r	hip_flexion_l	hip_adduction_l	hip_rotation_l	knee_angle_l	ankle_angle_l	subtalar_angle_l	mtp_angle_l	lumbar_extension	lumbar_bending	lumbar_rotation
      6.25500000	     11.70496730	     -2.09891459	     12.11138048	      2.51052669	      0.75501448	     -0.18058273	     -5.05506457	      5.78249256	     -5.49118676	    -15.68887790	     26.69450956	      6.78099401	      0.00000000	     14.75991291	      0.89242512	      6.23961381	    -67.26136666	     20.37208321	     -2.78732704	      0.00000000	    -31.38719889	      6.71646513	      6.79189945
      6.26000000	     11.75384406	     -2.14490287	     11.83038921	      2.51762165	      0.75522349	     -0.18047537	     -6.01068324	      5.92155725	     -5.36036090	    -15.03201190	     26.95825329	      7.17114176	      0.00000000	     15.48123800	      0.82327540	      5.73791171	    -66.21126865	     20.89243366	     -2.46069504	      0.00000000	    -31.50053207	      6.62812704	      7.33797348
      6.26500000	     11.82122566	     -2.18325027	     11.54413220	      2.52473039	      0.75535694	     -0.18037332	     -6.99018891	      6.04168822	     -5.25794718	    -14.37725952	     27.24308052	      7.61029520	      0.00000000	     16.14042680	      0.73955819	      5.23173896	    -65.06535227	     21.33410858	     -2.09650444	      0.00000000	    -31.63739428	      6.53051752	      7.87106253
      6.27000000	     11.87477080	     -2.25280398	     11.24532795	      2.53184583	      0.75536871	     -0.18029699	     -7.94138688	      6.17392038	     -5.17031387	    -13.74021019	     27.50174289	      8.07617117	      0.00000000	     16.78330081	      0.60734957	      4.70693527	    -63.83421394	     21.73835537	     -1.73966523	      0.00000000	    -31.75103686	      6.47319021	      8.38234238
      6.27500000	     11.97961071	     -2.28004056	     10.94646682	      2.53895760	      0.75534816	     -0.18025225	     -8.96014253	      6.25593395	     -5.11081370	    -13.10111624	     27.83724212	      8.61438872	      0.00000000	     17.31271942	      0.51206307	      4.21615377	    -62.49595639	     22.04594142	     -1.33383496	      0.00000000	    -31.93364801	      6.38117264	      8.87896588
      6.28000000	     12.03745526	     -2.37027420	     10.63195995	      2.54608061	      0.75516783	     -0.18020748	     -9.90597540	      6.38024824	     -5.05388472	    -12.48405641	     28.08727956	      9.13498851	      0.00000000	     17.87281691	      0.33639655	      3.70096496	    -61.08793756	     22.34190031	     -0.96452597	      0.00000000	    -32.05218478	      6.34777191	      9.35670193
      6.28500000	     12.17292212	     -2.39075646	     10.34430994	      2.55322237	      0.75498654	     -0.18021067	    -10.95560902	      6.43616216	     -5.05998788	    -11.86646814	     28.44650606	      9.74830616	      0.00000000	     18.27928563	      0.22492965	      3.22085221	    -59.56116008	     22.55172850	     -0.58693505	      0.00000000	    -32.26131867	      6.26732504	      9.76738613
      6.29000000	     12.20950942	     -2.51878046	     10.01469754	      2.56033813	      0.75459325	     -0.18018717	    -11.85758446	      6.57148234	     -4.99204626	    -11.28531355	     28.67652583	     10.26139340	      0.00000000	     18.78781209	      0.00652466	      2.75174952	    -57.98819081	     22.75625663	     -0.19163825	      0.00000000	    -32.35752171	      6.26552677	     10.24771246
      6.29500000	     12.29803792	     -2.60431964	      9.68605086	      2.56746222	      0.75417267	     -0.18019466	    -12.82226247	      6.65935870	     -4.93652067	    -10.71642905	     28.98496022	     10.80486214	      0.00000000	     19.17504713	     -0.17706452	      2.30024519	    -56.30530978	     22.91630115	      0.23470196	      0.00000000	    -32.51696767	      6.23255800	     10.67762751
      6.30000000	     12.44933365	     -2.64592412	      9.41316483	      2.57459969	      0.75373566	     -0.18027917	    -13.87000170	      6.70957933	     -4.99425207	    -10.14045906	     29.32977345	     11.43899986	      0.00000000	     19.43564008	     -0.29992734	      1.92546421	    -54.51766962	     23.01203899	      0.59051924	      0.00000000	    -32.74551330	      6.19507683	     11.00076057
      6.30500000	     12.53437190	     -2.75215146	      9.10374322	      2.58171783	      0.75313791	     -0.18034015	    -14.81181349	      6.80301663	     -4.97327793	     -9.61232177	     29.62620832	     11.97953590	      0.00000000	     19.74253659	     -0.48924972	      1.56558304	    -52.66934164	     23.10627905	      1.01897750	      0.00000000	    -32.90030975	      6.19693655	     11.38202020
      6.31000000	     12.57029204	     -2.90787763	      8.77808844	      2.58881858	      0.75240988	     -0.18040325	    -15.67316365	      6.93012068	     -4.89767853	     -9.12652957	     29.86346741	     12.43315347	      0.00000000	     20.07163954	     -0.72359526	      1.23991481	    -50.75557205	     23.18328047	      1.49226317	      0.00000000	    -33.00062272	      6.23794199	     11.80313970
      6.31500000	     12.66431080	     -3.02338722	      8.47389978	      2.59593791	      0.75167260	     -0.18049344	    -16.60729764	      7.02226726	     -4.85896688	     -8.64464588	     30.15949944	     12.90817527	      0.00000000	     20.27101924	     -0.91362812	      0.96895504	    -48.74041662	     23.23951819	      1.98805806	      0.00000000	    -33.16968131	      6.25301705	     12.14997847
      6.32000000	     12.76082376	     -3.14601041	      8.19054214	      2.60305688	      0.75086694	     -0.18061346	    -17.53452905	      7.12022839	     -4.85365513	     -8.18529877	     30.44094326	     13.37940912	      0.00000000	     20.42163799	     -1.09522761	      0.77137341	    -46.64908404	     23.26804464	      2.48494495	      0.00000000	    -33.34013735	      6.28407783	     12.46796473
      6.32500000	     12.88010354	     -3.26474160	      7.93734256	      2.61017138	      0.75000970	     -0.18077239	    -18.47870372	      7.21899602	     -4.88160286	     -7.74920517	     30.75819014	     13.86826135	      0.00000000	     20.49957970	     -1.25200592	      0.67355545	    -44.48440537	     23.25906658	      2.97644493	      0.00000000	    -33.53752170	      6.32894913	     12.72489171
      6.33000000	     12.97085580	     -3.38797627	      7.69886945	      2.61732844	      0.74907152	     -0.18096683	    -19.38823227	      7.31656393	     -4.95599001	     -7.33036924	     31.01714306	     14.33138607	      0.00000000	     20.55471871	     -1.39982514	      0.62402254	    -42.24752707	     23.25173597	      3.46720234	      0.00000000	    -33.69304886	      6.38009172	     12.98827372
      6.33500000	     13.03759106	     -3.54344107	      7.44019155	      2.62446446	      0.74805000	     -0.18112950	    -20.23670580	      7.43523939	     -4.95881306	     -6.97992512	     31.28800048	     14.72430535	      0.00000000	     20.59566096	     -1.58358668	      0.62193592	    -39.96320041	     23.22716918	      4.04072234	      0.00000000	    -33.83028039	      6.44829245	     13.26322355
      6.34000000	     13.10593868	     -3.69289367	      7.20130585	      2.63163355	      0.74698387	     -0.18132154	    -21.08042757	      7.54840747	     -4.99101713	     -6.65637412	     31.53799478	     15.10041086	      0.00000000	     20.58050521	     -1.75184624	      0.67714439	    -37.62067162	     23.18574940	      4.60489271	      0.00000000	    -33.96373132	      6.51669861	     13.52562202
      6.34500000	     13.16551546	     -3.84320047	      6.97529094	      2.63883954	      0.74586427	     -0.18152977	    -21.90485103	      7.66055231	     -5.04368494	     -6.36401208	     31.77798971	     15.45787825	      0.00000000	     20.52583286	     -1.91440690	      0.78410539	    -35.23856329	     23.12175134	      5.15113311	      0.00000000	    -34.08129379	      6.58620620	     13.79106123
